#N canvas -8 -8 1280 941 10;
#X msg 33 765 avgRate \$1;
#X msg 129 764 minRadius \$1;
#X msg 227 764 maxRadius \$1;
#X msg 325 764 expRadius \$1;
#X msg 419 764 minDepth \$1;
#X msg 509 764 maxDepth \$1;
#X msg 601 764 expDepth \$1;
#X msg 692 763 riseFactor \$1;
#X floatatom 33 722 8 0 100000 0 - - -, f 8;
#X floatatom 129 720 5 0 0 0 - - -, f 5;
#X floatatom 227 722 5 0 0 0 - - -, f 5;
#X floatatom 419 721 5 0 0 0 - - -, f 5;
#X floatatom 509 721 5 0 0 0 - - -, f 5;
#X floatatom 601 722 5 0 0 0 - - -, f 5;
#X floatatom 692 721 5 0 0 0 - - -, f 5;
#X floatatom 325 722 5 0 0 0 - - -, f 5;
#X floatatom 798 722 5 0 0 0 - - -, f 5;
#X msg 798 763 riseCutoff \$1;
#X msg 822 456 Sound Design Toolkit \; (C) 2001 - 2016 \; \; Project
SOb - soundobject.org \; Project CLOSED - closed.ircam.fr \; Project
NIW - soundobject.org/niw \; Project SkAT-VG - skatvg.eu;
#X obj 325 581 vsl 15 128 0 10 0 0 empty expRadius1 empty 0 -9 0 10
-262144 -1 -1 9779 1;
#X obj 227 581 vsl 15 128 0.15 150 0 0 empty maxRadius1 empty 0 -9
0 10 -262144 -1 -1 1428 1;
#X obj 33 581 vsl 15 128 0 1000 0 0 empty avgRate1 empty 0 -9 0 10
-262144 -1 -1 3861 1;
#X obj 509 581 vsl 15 128 0 1 0 0 empty maxDepth1 empty 0 -9 0 10 -262144
-1 -1 1270 1;
#X obj 601 582 vsl 15 128 0 10 0 0 empty expDepth1 empty 0 -9 0 10
-262144 -1 -1 381 1;
#X obj 692 581 vsl 15 128 0 4 0 0 empty riseFactor1 empty 0 -9 0 10
-262144 -1 -1 0 1;
#X obj 798 582 vsl 15 128 0 1 0 0 empty riseCutoff1 empty 0 -9 0 10
-262144 -1 -1 0 1;
#X obj 129 579 vsl 15 128 0.15 150 0 0 empty minRadius1 empty 0 -9
0 10 -262144 -1 -1 835 1;
#X obj 419 580 vsl 15 128 0 1 0 0 empty minDepth1 empty 0 -9 0 10 -262144
-1 -1 0 1;
#X text 8 559 Bubbles/sec;
#X text 108 559 Min. and max. radius (mm);
#X text 296 560 Radius gamma;
#X text 414 560 Min. and max. depth;
#X text 573 561 Depth gamma;
#X text 664 561 Bloop amount;
#X text 749 560 Min. blooping depth;
#X obj 227 742 * 0.001;
#X obj 129 741 * 0.001;
#X text 155 823 Arg: n. of voices (set it large for dense events);
#X obj 865 48 r pd;
#X obj 865 71 route dsp;
#X obj 865 94 select 1;
#X obj 875 116 loadbang;
#X msg 398 34 listen 6005;
#X obj 398 56 netreceive -u -b;
#X obj 398 78 oscparse;
#X obj 398 100 route list;
#X obj 398 122 route passing;
#X obj 398 166 route flow;
#X floatatom 398 188 5 0 0 0 - - -, f 5;
#X obj 184 529 clip 0 150;
#X obj 398 12 loadbang;
#X obj 398 144 route drain;
#X floatatom 316 188 5 0 0 0 - - -, f 5;
#X obj 316 144 route pd;
#X obj 316 166 route move;
#X obj 316 207 route 0 1;
#X obj 315 245 bng 15 250 50 0 empty empty empty 17 7 0 10 -262144
-1 -1;
#X obj 347 247 bng 15 250 50 0 empty empty empty 17 7 0 10 -262144
-1 -1;
#X msg 513 283 \; avgRate1 304 \; minRadius1 10 \; maxRadius1 17 \;
expRadius1 7.7 \; minDepth1 0 \; maxDepth1 0.1 \; expDepth1 0.3 \;
riseFactor1 0 \; riseCutoff1 0 \;;
#X msg 627 283 \; avgRate1 204 \; minRadius1 11 \; maxRadius1 15 \;
expRadius1 7.7 \; minDepth1 0 \; maxDepth1 0.1 \; expDepth1 0 \; riseFactor1
2.27 \; riseCutoff1 0 \;;
#X msg 217 1084 avgRate \$1;
#X msg 313 1083 minRadius \$1;
#X msg 411 1083 maxRadius \$1;
#X msg 509 1083 expRadius \$1;
#X msg 603 1083 minDepth \$1;
#X msg 693 1083 maxDepth \$1;
#X msg 785 1083 expDepth \$1;
#X msg 876 1082 riseFactor \$1;
#X floatatom 217 1041 8 0 100000 0 - - -, f 8;
#X floatatom 313 1039 5 0 0 0 - - -, f 5;
#X floatatom 411 1041 5 0 0 0 - - -, f 5;
#X floatatom 603 1040 5 0 0 0 - - -, f 5;
#X floatatom 693 1040 5 0 0 0 - - -, f 5;
#X floatatom 785 1041 5 0 0 0 - - -, f 5;
#X floatatom 876 1040 5 0 0 0 - - -, f 5;
#X floatatom 509 1041 5 0 0 0 - - -, f 5;
#X floatatom 982 1041 5 0 0 0 - - -, f 5;
#X msg 982 1082 riseCutoff \$1;
#X obj 509 900 vsl 15 128 0 10 0 0 empty expRadius2 empty 0 -9 0 10
-262144 -1 -1 3810 1;
#X obj 411 900 vsl 15 128 0.15 150 0 0 empty maxRadius2 empty 0 -9
0 10 -262144 -1 -1 1004 1;
#X obj 217 900 vsl 15 128 0 1000 0 0 empty avgRate2 empty 0 -9 0 10
-262144 -1 -1 0 1;
#X obj 693 900 vsl 15 128 0 1 0 0 empty maxDepth2 empty 0 -9 0 10 -262144
-1 -1 12700 1;
#X obj 785 901 vsl 15 128 0 10 0 0 empty expDepth2 empty 0 -9 0 10
-262144 -1 -1 1270 1;
#X obj 876 900 vsl 15 128 0 4 0 0 empty riseFactor2 empty 0 -9 0 10
-262144 -1 -1 317 1;
#X obj 982 901 vsl 15 128 0 1 0 0 empty riseCutoff2 empty 0 -9 0 10
-262144 -1 -1 11430 1;
#X obj 313 898 vsl 15 128 0.15 150 0 0 empty minRadius2 empty 0 -9
0 10 -262144 -1 -1 114 1;
#X obj 603 899 vsl 15 128 0 1 0 0 empty minDepth2 empty 0 -9 0 10 -262144
-1 -1 0 1;
#X text 192 878 Bubbles/sec;
#X text 292 878 Min. and max. radius (mm);
#X text 480 879 Radius gamma;
#X text 598 879 Min. and max. depth;
#X text 757 880 Depth gamma;
#X text 848 880 Bloop amount;
#X text 933 880 Min. blooping depth;
#X obj 411 1061 * 0.001;
#X obj 313 1060 * 0.001;
#X text 339 1142 Arg: n. of voices (set it large for dense events)
;
#X obj 370 1200 line~;
#X floatatom 203 496 5 0 0 0 - - -, f 5;
#X msg 235 357 0;
#X obj 289 365 bng 15 250 50 0 empty empty empty 17 7 0 10 -262144
-1 -1;
#X obj 210 257 t b b b;
#X obj 210 235 bng 15 250 50 0 empty empty empty 17 7 0 10 -262144
-1 -1;
#X text 550 102 fluidflow~ - Liquid sounds model;
#X msg 188 307 300;
#X msg 235 307 1600;
#X obj 235 335 delay 1600 1 msec;
#X obj 574 460 line;
#X msg 537 432 0;
#X msg 479 432 0 2000;
#X obj 504 519 line;
#X msg 467 491 0;
#X msg 409 491 7.7 2000;
#X msg 513 489 0.4 2000;
#X msg 583 430 1.7 2000;
#X msg 907 284 \; avgRate2 0 \; minRadius2 1.5 \; maxRadius2 12 \;
expRadius2 3 \; minDepth2 0 \; maxDepth2 1 \; expDepth2 1 \; riseFactor2
0.1 \; riseCutoff2 0.9 \;;
#X obj 111 1194 +~;
#X obj 111 1216 *~;
#X floatatom 161 1200 5 0 0 0 - - -, f 5;
#X obj 111 1238 dac~;
#X msg 516 1397 avgRate \$1;
#X msg 612 1396 minRadius \$1;
#X msg 710 1396 maxRadius \$1;
#X msg 808 1396 expRadius \$1;
#X msg 902 1396 minDepth \$1;
#X msg 992 1396 maxDepth \$1;
#X msg 1084 1396 expDepth \$1;
#X msg 1175 1395 riseFactor \$1;
#X floatatom 516 1354 8 0 100000 0 - - -, f 8;
#X floatatom 612 1352 5 0 0 0 - - -, f 5;
#X floatatom 710 1354 5 0 0 0 - - -, f 5;
#X floatatom 902 1353 5 0 0 0 - - -, f 5;
#X floatatom 992 1353 5 0 0 0 - - -, f 5;
#X floatatom 1084 1354 5 0 0 0 - - -, f 5;
#X floatatom 1175 1353 5 0 0 0 - - -, f 5;
#X floatatom 808 1354 5 0 0 0 - - -, f 5;
#X floatatom 1281 1354 5 0 0 0 - - -, f 5;
#X msg 1281 1395 riseCutoff \$1;
#X obj 808 1213 vsl 15 128 0 10 0 0 empty expRadius3 empty 0 -9 0 10
-262144 -1 -1 5080 1;
#X obj 710 1213 vsl 15 128 0.15 150 0 0 empty maxRadius3 empty 0 -9
0 10 -262144 -1 -1 103 1;
#X obj 516 1213 vsl 15 128 0 1000 0 0 empty avgRate3 empty 0 -9 0 10
-262144 -1 -1 0 1;
#X obj 992 1213 vsl 15 128 0 1 0 0 empty maxDepth3 empty 0 -9 0 10
-262144 -1 -1 12700 1;
#X obj 1084 1214 vsl 15 128 0 10 0 0 empty expDepth3 empty 0 -9 0 10
-262144 -1 -1 2286 1;
#X obj 1175 1213 vsl 15 128 0 4 0 0 empty riseFactor3 empty 0 -9 0
10 -262144 -1 -1 0 1;
#X obj 1281 1214 vsl 15 128 0 1 0 0 empty riseCutoff3 empty 0 -9 0
10 -262144 -1 -1 11430 1;
#X obj 612 1211 vsl 15 128 0.15 150 0 0 empty minRadius3 empty 0 -9
0 10 -262144 -1 -1 0 1;
#X obj 902 1212 vsl 15 128 0 1 0 0 empty minDepth3 empty 0 -9 0 10
-262144 -1 -1 0 1;
#X text 491 1191 Bubbles/sec;
#X text 591 1191 Min. and max. radius (mm);
#X text 779 1192 Radius gamma;
#X text 897 1192 Min. and max. depth;
#X text 1056 1193 Depth gamma;
#X text 1147 1193 Bloop amount;
#X text 1232 1193 Min. blooping depth;
#X obj 710 1374 * 0.001;
#X obj 612 1373 * 0.001;
#X text 638 1455 Arg: n. of voices (set it large for dense events)
;
#X obj 33 823 fluidflow~ 64;
#X obj 498 1442 fluidflow~ 64;
#X obj 201 1142 fluidflow~ 64;
#X msg 1149 1031 \; avgRate3 0 \; minRadius3 0.15 \; maxRadius3 1.37
\; expRadius3 4 \; minDepth3 0 \; maxDepth3 1 \; expDepth3 1.8 \; riseFactor3
0 \; riseCutoff3 0.9 \;;
#X obj 210 143 route pd;
#X obj 210 165 route spawn;
#X connect 0 0 157 0;
#X connect 1 0 157 0;
#X connect 2 0 157 0;
#X connect 3 0 157 0;
#X connect 4 0 157 0;
#X connect 5 0 157 0;
#X connect 6 0 157 0;
#X connect 7 0 157 0;
#X connect 8 0 0 0;
#X connect 9 0 36 0;
#X connect 10 0 35 0;
#X connect 11 0 4 0;
#X connect 12 0 5 0;
#X connect 13 0 6 0;
#X connect 14 0 7 0;
#X connect 15 0 3 0;
#X connect 16 0 17 0;
#X connect 17 0 157 0;
#X connect 19 0 15 0;
#X connect 20 0 10 0;
#X connect 21 0 8 0;
#X connect 22 0 12 0;
#X connect 23 0 13 0;
#X connect 24 0 14 0;
#X connect 25 0 16 0;
#X connect 26 0 9 0;
#X connect 27 0 11 0;
#X connect 35 0 2 0;
#X connect 36 0 1 0;
#X connect 38 0 39 0;
#X connect 39 0 40 0;
#X connect 41 0 58 0;
#X connect 41 0 115 0;
#X connect 42 0 43 0;
#X connect 43 0 44 0;
#X connect 44 0 45 0;
#X connect 45 0 46 0;
#X connect 46 0 51 0;
#X connect 46 0 53 0;
#X connect 46 0 161 0;
#X connect 47 0 48 0;
#X connect 49 0 80 0;
#X connect 50 0 42 0;
#X connect 51 0 47 0;
#X connect 52 0 55 0;
#X connect 53 0 54 0;
#X connect 54 0 52 0;
#X connect 55 0 56 0;
#X connect 55 1 57 0;
#X connect 56 0 109 0;
#X connect 56 0 112 0;
#X connect 57 0 114 0;
#X connect 57 0 113 0;
#X connect 60 0 159 0;
#X connect 61 0 159 0;
#X connect 62 0 159 0;
#X connect 63 0 159 0;
#X connect 64 0 159 0;
#X connect 65 0 159 0;
#X connect 66 0 159 0;
#X connect 67 0 159 0;
#X connect 68 0 60 0;
#X connect 69 0 95 0;
#X connect 70 0 94 0;
#X connect 71 0 64 0;
#X connect 72 0 65 0;
#X connect 73 0 66 0;
#X connect 74 0 67 0;
#X connect 75 0 63 0;
#X connect 76 0 77 0;
#X connect 77 0 159 0;
#X connect 78 0 75 0;
#X connect 79 0 70 0;
#X connect 80 0 68 0;
#X connect 81 0 72 0;
#X connect 82 0 73 0;
#X connect 83 0 74 0;
#X connect 84 0 76 0;
#X connect 85 0 69 0;
#X connect 86 0 71 0;
#X connect 94 0 62 0;
#X connect 95 0 61 0;
#X connect 98 0 49 0;
#X connect 99 0 98 0;
#X connect 101 1 104 0;
#X connect 101 2 105 0;
#X connect 102 0 101 0;
#X connect 104 0 98 0;
#X connect 105 0 106 0;
#X connect 106 0 99 0;
#X connect 106 0 100 0;
#X connect 107 0 24 0;
#X connect 108 0 107 0;
#X connect 109 0 107 0;
#X connect 110 0 19 0;
#X connect 111 0 110 0;
#X connect 112 0 110 0;
#X connect 113 0 110 0;
#X connect 114 0 107 0;
#X connect 116 0 117 0;
#X connect 117 0 119 0;
#X connect 118 0 117 1;
#X connect 120 0 158 0;
#X connect 121 0 158 0;
#X connect 122 0 158 0;
#X connect 123 0 158 0;
#X connect 124 0 158 0;
#X connect 125 0 158 0;
#X connect 126 0 158 0;
#X connect 127 0 158 0;
#X connect 128 0 120 0;
#X connect 129 0 155 0;
#X connect 130 0 154 0;
#X connect 131 0 124 0;
#X connect 132 0 125 0;
#X connect 133 0 126 0;
#X connect 134 0 127 0;
#X connect 135 0 123 0;
#X connect 136 0 137 0;
#X connect 137 0 158 0;
#X connect 138 0 135 0;
#X connect 139 0 130 0;
#X connect 140 0 128 0;
#X connect 141 0 132 0;
#X connect 142 0 133 0;
#X connect 143 0 134 0;
#X connect 144 0 136 0;
#X connect 145 0 129 0;
#X connect 146 0 131 0;
#X connect 154 0 122 0;
#X connect 155 0 121 0;
#X connect 157 0 116 0;
#X connect 158 0 119 1;
#X connect 159 0 116 1;
#X connect 161 0 162 0;
#X connect 162 0 102 0;
