#N canvas -8 -8 1280 941 10;
#X msg 33 565 avgRate \$1;
#X msg 129 564 minRadius \$1;
#X msg 227 564 maxRadius \$1;
#X msg 325 564 expRadius \$1;
#X msg 419 564 minDepth \$1;
#X msg 509 564 maxDepth \$1;
#X msg 601 564 expDepth \$1;
#X msg 692 563 riseFactor \$1;
#X floatatom 33 522 8 0 100000 0 - - -, f 8;
#X floatatom 129 520 5 0 0 0 - - -, f 5;
#X floatatom 227 522 5 0 0 0 - - -, f 5;
#X floatatom 419 521 5 0 0 0 - - -, f 5;
#X floatatom 509 521 5 0 0 0 - - -, f 5;
#X floatatom 601 522 5 0 0 0 - - -, f 5;
#X floatatom 692 521 5 0 0 0 - - -, f 5;
#X floatatom 325 522 5 0 0 0 - - -, f 5;
#X floatatom 798 522 5 0 0 0 - - -, f 5;
#X msg 798 563 riseCutoff \$1;
#X text 45 170 fluidflow~ - Liquid sounds model;
#X msg 822 256 Sound Design Toolkit \; (C) 2001 - 2016 \; \; Project
SOb - soundobject.org \; Project CLOSED - closed.ircam.fr \; Project
NIW - soundobject.org/niw \; Project SkAT-VG - skatvg.eu;
#X obj 325 381 vsl 15 128 0 10 0 0 empty expRadius empty 0 -9 0 10
-262144 -1 -1 9779 1;
#X obj 227 381 vsl 15 128 0.15 150 0 0 empty maxRadius empty 0 -9 0
10 -262144 -1 -1 1428 1;
#X obj 33 381 vsl 15 128 0 1000 0 0 empty avgRate empty 0 -9 0 10 -262144
-1 -1 3861 1;
#X obj 509 381 vsl 15 128 0 1 0 0 empty maxDepth empty 0 -9 0 10 -262144
-1 -1 1270 1;
#X obj 601 382 vsl 15 128 0 10 0 0 empty expDepth empty 0 -9 0 10 -262144
-1 -1 381 1;
#X obj 692 381 vsl 15 128 0 4 0 0 empty riseFactor empty 0 -9 0 10
-262144 -1 -1 0 1;
#X obj 798 382 vsl 15 128 0 1 0 0 empty riseCutoff empty 0 -9 0 10
-262144 -1 -1 0 1;
#X obj 129 379 vsl 15 128 0.15 150 0 0 empty minRadius empty 0 -9 0
10 -262144 -1 -1 835 1;
#X obj 419 380 vsl 15 128 0 1 0 0 empty minDepth empty 0 -9 0 10 -262144
-1 -1 0 1;
#X text 8 359 Bubbles/sec;
#X text 108 359 Min. and max. radius (mm);
#X text 296 360 Radius gamma;
#X text 414 360 Min. and max. depth;
#X text 573 361 Depth gamma;
#X text 664 361 Bloop amount;
#X text 749 361 Min. blooping depth;
#X obj 227 542 * 0.001;
#X obj 129 541 * 0.001;
#X text 155 623 Arg: n. of voices (set it large for dense events);
#X obj 934 453 r pd;
#X obj 934 476 route dsp;
#X obj 934 499 select 1;
#X obj 944 521 loadbang;
#X msg 398 34 listen 6005;
#X obj 398 56 netreceive -u -b;
#X obj 398 78 oscparse;
#X obj 398 100 route list;
#X obj 398 122 route passing;
#X obj 398 166 route flow;
#X floatatom 398 188 5 0 0 0 - - -, f 5;
#X obj 398 229 + 0;
#X obj 135 304 clip 0 150;
#X obj 398 207 * 2000;
#X obj 398 251 - 10;
#X obj 398 12 loadbang;
#X msg 888 666 \; avgRate 1000 \; minRadius 0.15 \; maxRadius 5 \;
expRadius 3 \; minDepth 0 \; maxDepth 1 \; expDepth 1 \; riseFactor
0.1 \; riseCutoff 0.9 \;;
#X obj 186 681 line~;
#X obj 33 694 dac~;
#X obj 33 659 *~ 1;
#X obj 33 623 fluidflow~ 128;
#X msg 717 691 \; avgRate 204 \; minRadius 14 \; maxRadius 27 \; expRadius
7.7 \; minDepth 0 \; maxDepth 0.1 \; expDepth 0 \; riseFactor 2.27
\; riseCutoff 0 \;;
#X obj 398 144 route drain;
#X floatatom 316 188 5 0 0 0 - - -, f 5;
#X obj 316 144 route pd;
#X obj 316 166 route move;
#X obj 316 207 route 0 1;
#X obj 315 245 bng 15 250 50 0 empty empty empty 17 7 0 10 -262144
-1 -1;
#X obj 347 247 bng 15 250 50 0 empty empty empty 17 7 0 10 -262144
-1 -1;
#X msg 592 688 \; avgRate 304 \; minRadius 10 \; maxRadius 17 \; expRadius
7.7 \; minDepth 0 \; maxDepth 0.1 \; expDepth 0.3 \; riseFactor 0 \;
riseCutoff 0 \;;
#X connect 0 0 59 0;
#X connect 1 0 59 0;
#X connect 2 0 59 0;
#X connect 3 0 59 0;
#X connect 4 0 59 0;
#X connect 5 0 59 0;
#X connect 6 0 59 0;
#X connect 7 0 59 0;
#X connect 8 0 0 0;
#X connect 9 0 37 0;
#X connect 10 0 36 0;
#X connect 11 0 4 0;
#X connect 12 0 5 0;
#X connect 13 0 6 0;
#X connect 14 0 7 0;
#X connect 15 0 3 0;
#X connect 16 0 17 0;
#X connect 17 0 59 0;
#X connect 20 0 15 0;
#X connect 21 0 10 0;
#X connect 22 0 8 0;
#X connect 23 0 12 0;
#X connect 24 0 13 0;
#X connect 25 0 14 0;
#X connect 26 0 16 0;
#X connect 27 0 9 0;
#X connect 28 0 11 0;
#X connect 36 0 2 0;
#X connect 37 0 1 0;
#X connect 39 0 40 0;
#X connect 40 0 41 0;
#X connect 41 0 55 0;
#X connect 42 0 55 0;
#X connect 43 0 44 0;
#X connect 44 0 45 0;
#X connect 45 0 46 0;
#X connect 46 0 47 0;
#X connect 47 0 61 0;
#X connect 47 0 63 0;
#X connect 48 0 49 0;
#X connect 49 0 52 0;
#X connect 50 0 53 0;
#X connect 51 0 22 0;
#X connect 52 0 50 0;
#X connect 53 0 51 0;
#X connect 54 0 43 0;
#X connect 58 0 57 0;
#X connect 59 0 58 0;
#X connect 61 0 48 0;
#X connect 62 0 65 0;
#X connect 63 0 64 0;
#X connect 64 0 62 0;
#X connect 65 0 66 0;
#X connect 65 0 68 0;
#X connect 65 1 67 0;
#X connect 65 1 60 0;
