#N canvas 161 203 1051 635 10;
#X msg 33 565 avgRate \$1;
#X msg 129 564 minRadius \$1;
#X msg 227 564 maxRadius \$1;
#X msg 325 564 expRadius \$1;
#X msg 419 564 minDepth \$1;
#X msg 509 564 maxDepth \$1;
#X msg 601 564 expDepth \$1;
#X msg 692 563 riseFactor \$1;
#X floatatom 33 522 8 0 100000 0 - - -, f 8;
#X floatatom 129 520 5 0 0 0 - - -, f 5;
#X floatatom 227 522 5 0 0 0 - - -, f 5;
#X floatatom 419 521 5 0 0 0 - - -, f 5;
#X floatatom 509 521 5 0 0 0 - - -, f 5;
#X floatatom 601 522 5 0 0 0 - - -, f 5;
#X floatatom 692 521 5 0 0 0 - - -, f 5;
#X floatatom 325 522 5 0 0 0 - - -, f 5;
#X floatatom 798 522 5 0 0 0 - - -, f 5;
#X msg 798 563 riseCutoff \$1;
#X text 45 170 fluidflow~ - Liquid sounds model;
#X msg 822 256 Sound Design Toolkit \; (C) 2001 - 2016 \; \; Project
SOb - soundobject.org \; Project CLOSED - closed.ircam.fr \; Project
NIW - soundobject.org/niw \; Project SkAT-VG - skatvg.eu;
#X obj 325 381 vsl 15 128 0 10 0 0 empty expRadius1 empty 0 -9 0 10
-262144 -1 -1 9779 1;
#X obj 227 381 vsl 15 128 0.15 150 0 0 empty maxRadius1 empty 0 -9
0 10 -262144 -1 -1 1428 1;
#X obj 33 381 vsl 15 128 0 1000 0 0 empty avgRate1 empty 0 -9 0 10
-262144 -1 -1 3861 1;
#X obj 509 381 vsl 15 128 0 1 0 0 empty maxDepth1 empty 0 -9 0 10 -262144
-1 -1 1270 1;
#X obj 601 382 vsl 15 128 0 10 0 0 empty expDepth1 empty 0 -9 0 10
-262144 -1 -1 381 1;
#X obj 692 381 vsl 15 128 0 4 0 0 empty riseFactor1 empty 0 -9 0 10
-262144 -1 -1 0 1;
#X obj 798 382 vsl 15 128 0 1 0 0 empty riseCutoff1 empty 0 -9 0 10
-262144 -1 -1 0 1;
#X obj 129 379 vsl 15 128 0.15 150 0 0 empty minRadius1 empty 0 -9
0 10 -262144 -1 -1 835 1;
#X obj 419 380 vsl 15 128 0 1 0 0 empty minDepth1 empty 0 -9 0 10 -262144
-1 -1 0 1;
#X text 8 359 Bubbles/sec;
#X text 108 359 Min. and max. radius (mm);
#X text 296 360 Radius gamma;
#X text 414 360 Min. and max. depth;
#X text 573 361 Depth gamma;
#X text 664 361 Bloop amount;
#X text 749 360 Min. blooping depth;
#X obj 227 542 * 0.001;
#X obj 129 541 * 0.001;
#X text 155 623 Arg: n. of voices (set it large for dense events);
#X obj 934 453 r pd;
#X obj 934 476 route dsp;
#X obj 934 499 select 1;
#X obj 944 521 loadbang;
#X msg 398 34 listen 6005;
#X obj 398 56 netreceive -u -b;
#X obj 398 78 oscparse;
#X obj 398 100 route list;
#X obj 398 122 route passing;
#X obj 398 166 route flow;
#X floatatom 398 188 5 0 0 0 - - -, f 5;
#X obj 398 229 + 0;
#X obj 135 304 clip 0 150;
#X obj 398 251 - 10;
#X obj 398 12 loadbang;
#X obj 186 681 line~;
#X obj 33 694 dac~;
#X obj 33 659 *~ 1;
#X obj 33 623 fluidflow~ 128;
#X obj 398 144 route drain;
#X floatatom 316 188 5 0 0 0 - - -, f 5;
#X obj 316 144 route pd;
#X obj 316 166 route move;
#X obj 316 207 route 0 1;
#X obj 315 245 bng 15 250 50 0 empty empty empty 17 7 0 10 -262144
-1 -1;
#X obj 347 247 bng 15 250 50 0 empty empty empty 17 7 0 10 -262144
-1 -1;
#X obj 488 166 route flow;
#X floatatom 488 188 5 0 0 0 - - -, f 5;
#X obj 488 144 route plate;
#X msg 856 657 \; avgRate 10 \; minRadius 0.15 \; maxRadius 5 \; expRadius
3 \; minDepth 0 \; maxDepth 1 \; expDepth 1 \; riseFactor 0.1 \; riseCutoff
0.9 \;;
#X msg 592 688 \; avgRate1 304 \; minRadius1 10 \; maxRadius1 17 \;
expRadius1 7.7 \; minDepth1 0 \; maxDepth1 0.1 \; expDepth1 0.3 \;
riseFactor1 0 \; riseCutoff1 0 \;;
#X msg 712 688 \; avgRate1 204 \; minRadius1 11 \; maxRadius1 15 \;
expRadius1 7.7 \; minDepth1 0 \; maxDepth1 0.1 \; expDepth1 0 \; riseFactor1
2.27 \; riseCutoff1 0 \;;
#X msg 37 1096 avgRate \$1;
#X msg 133 1095 minRadius \$1;
#X msg 231 1095 maxRadius \$1;
#X msg 329 1095 expRadius \$1;
#X msg 423 1095 minDepth \$1;
#X msg 513 1095 maxDepth \$1;
#X msg 605 1095 expDepth \$1;
#X msg 696 1094 riseFactor \$1;
#X floatatom 37 1053 8 0 100000 0 - - -, f 8;
#X floatatom 133 1051 5 0 0 0 - - -, f 5;
#X floatatom 231 1053 5 0 0 0 - - -, f 5;
#X floatatom 423 1052 5 0 0 0 - - -, f 5;
#X floatatom 513 1052 5 0 0 0 - - -, f 5;
#X floatatom 605 1053 5 0 0 0 - - -, f 5;
#X floatatom 696 1052 5 0 0 0 - - -, f 5;
#X floatatom 329 1053 5 0 0 0 - - -, f 5;
#X floatatom 802 1053 5 0 0 0 - - -, f 5;
#X msg 802 1094 riseCutoff \$1;
#X obj 329 912 vsl 15 128 0 10 0 0 empty expRadius2 empty 0 -9 0 10
-262144 -1 -1 3810 1;
#X obj 231 912 vsl 15 128 0.15 150 0 0 empty maxRadius2 empty 0 -9
0 10 -262144 -1 -1 411 1;
#X obj 37 912 vsl 15 128 0 1000 0 0 empty avgRate2 empty 0 -9 0 10
-262144 -1 -1 0 1;
#X obj 513 912 vsl 15 128 0 1 0 0 empty maxDepth2 empty 0 -9 0 10 -262144
-1 -1 12700 1;
#X obj 605 913 vsl 15 128 0 10 0 0 empty expDepth2 empty 0 -9 0 10
-262144 -1 -1 1270 1;
#X obj 696 912 vsl 15 128 0 4 0 0 empty riseFactor2 empty 0 -9 0 10
-262144 -1 -1 317 1;
#X obj 802 913 vsl 15 128 0 1 0 0 empty riseCutoff2 empty 0 -9 0 10
-262144 -1 -1 11430 1;
#X obj 133 910 vsl 15 128 0.15 150 0 0 empty minRadius2 empty 0 -9
0 10 -262144 -1 -1 0 1;
#X obj 423 911 vsl 15 128 0 1 0 0 empty minDepth2 empty 0 -9 0 10 -262144
-1 -1 0 1;
#X text 12 890 Bubbles/sec;
#X text 112 890 Min. and max. radius (mm);
#X text 300 891 Radius gamma;
#X text 418 891 Min. and max. depth;
#X text 577 892 Depth gamma;
#X text 668 892 Bloop amount;
#X text 753 892 Min. blooping depth;
#X obj 231 1073 * 0.001;
#X obj 133 1072 * 0.001;
#X text 159 1154 Arg: n. of voices (set it large for dense events)
;
#X obj 190 1212 line~;
#X obj 37 1225 dac~;
#X obj 37 1190 *~ 1;
#X obj 37 1154 fluidflow~ 128;
#X msg 904 885 \; avgRate2 10 \; minRadius2 0.15 \; maxRadius2 5 \;
expRadius2 3 \; minDepth2 0 \; maxDepth2 1 \; expDepth2 1 \; riseFactor2
0.1 \; riseCutoff2 0.9 \;;
#X obj 398 207 * 50;
#X obj 488 303 line;
#X floatatom 488 325 5 0 0 0 - - -, f 5;
#X msg 575 283 1;
#X msg 636 311 0;
#X obj 636 289 delay 1500 1 msec;
#X obj 690 319 bng 15 250 50 0 empty empty empty 17 7 0 10 -262144
-1 -1;
#X obj 488 251 t b b b;
#X obj 763 180 float;
#X floatatom 763 202 5 0 0 0 - - -, f 5;
#X floatatom 766 48 5 0 0 0 - - -, f 5;
#X obj 756 102 route 0 1;
#X obj 738 137 bng 15 250 50 0 empty empty empty 17 7 0 10 -262144
-1 -1;
#X msg 801 148 1;
#X obj 691 98 change;
#X obj 656 130 route 0 1;
#X msg 691 156 0;
#X obj 763 221 route 1;
#X obj 764 250 bng 15 250 50 0 empty empty empty 17 7 0 10 -262144
-1 -1;
#X obj 757 80 < 0.0001;
#X obj 691 77 > 1.3;
#X msg 488 281 300 2000;
#X msg 609 267 2100;
#X connect 0 0 57 0;
#X connect 1 0 57 0;
#X connect 2 0 57 0;
#X connect 3 0 57 0;
#X connect 4 0 57 0;
#X connect 5 0 57 0;
#X connect 6 0 57 0;
#X connect 7 0 57 0;
#X connect 8 0 0 0;
#X connect 9 0 37 0;
#X connect 10 0 36 0;
#X connect 11 0 4 0;
#X connect 12 0 5 0;
#X connect 13 0 6 0;
#X connect 14 0 7 0;
#X connect 15 0 3 0;
#X connect 16 0 17 0;
#X connect 17 0 57 0;
#X connect 20 0 15 0;
#X connect 21 0 10 0;
#X connect 22 0 8 0;
#X connect 23 0 12 0;
#X connect 24 0 13 0;
#X connect 25 0 14 0;
#X connect 26 0 16 0;
#X connect 27 0 9 0;
#X connect 28 0 11 0;
#X connect 36 0 2 0;
#X connect 37 0 1 0;
#X connect 39 0 40 0;
#X connect 40 0 41 0;
#X connect 41 0 68 0;
#X connect 42 0 68 0;
#X connect 43 0 44 0;
#X connect 44 0 45 0;
#X connect 45 0 46 0;
#X connect 46 0 47 0;
#X connect 47 0 58 0;
#X connect 47 0 60 0;
#X connect 47 0 67 0;
#X connect 48 0 49 0;
#X connect 49 0 113 0;
#X connect 50 0 52 0;
#X connect 51 0 91 0;
#X connect 53 0 43 0;
#X connect 56 0 55 0;
#X connect 57 0 56 0;
#X connect 58 0 48 0;
#X connect 59 0 62 0;
#X connect 60 0 61 0;
#X connect 61 0 59 0;
#X connect 62 0 63 0;
#X connect 62 0 69 0;
#X connect 62 1 64 0;
#X connect 62 1 70 0;
#X connect 65 0 66 0;
#X connect 65 0 123 0;
#X connect 66 0 113 0;
#X connect 67 0 65 0;
#X connect 71 0 111 0;
#X connect 72 0 111 0;
#X connect 73 0 111 0;
#X connect 74 0 111 0;
#X connect 75 0 111 0;
#X connect 76 0 111 0;
#X connect 77 0 111 0;
#X connect 78 0 111 0;
#X connect 79 0 71 0;
#X connect 80 0 106 0;
#X connect 81 0 105 0;
#X connect 82 0 75 0;
#X connect 83 0 76 0;
#X connect 84 0 77 0;
#X connect 85 0 78 0;
#X connect 86 0 74 0;
#X connect 87 0 88 0;
#X connect 88 0 111 0;
#X connect 89 0 86 0;
#X connect 90 0 81 0;
#X connect 91 0 79 0;
#X connect 92 0 83 0;
#X connect 93 0 84 0;
#X connect 94 0 85 0;
#X connect 95 0 87 0;
#X connect 96 0 80 0;
#X connect 97 0 82 0;
#X connect 105 0 73 0;
#X connect 106 0 72 0;
#X connect 110 0 109 0;
#X connect 111 0 110 0;
#X connect 113 0 50 0;
#X connect 114 0 115 0;
#X connect 115 0 51 0;
#X connect 116 0 114 0;
#X connect 117 0 115 0;
#X connect 118 0 117 0;
#X connect 118 0 119 0;
#X connect 120 0 134 0;
#X connect 120 1 116 0;
#X connect 120 2 135 0;
#X connect 121 0 122 0;
#X connect 122 0 130 0;
#X connect 123 0 132 0;
#X connect 123 0 133 0;
#X connect 124 1 126 0;
#X connect 125 0 121 0;
#X connect 126 0 121 1;
#X connect 127 0 125 0;
#X connect 128 1 129 0;
#X connect 129 0 121 1;
#X connect 130 0 131 0;
#X connect 131 0 120 0;
#X connect 132 0 124 0;
#X connect 133 0 127 0;
#X connect 133 0 128 0;
#X connect 134 0 114 0;
#X connect 135 0 118 0;
